<svg xmlns="http://www.w3.org/2000/svg" version="1.1" xmlns:xlink="http://www.w3.org/1999/xlink" xmlns:svgjs="http://svgjs.dev/svgjs" width="2000" height="343" viewBox="0 0 2000 343"><g transform="matrix(1,0,0,1,-1.2121212121212466,0.8136822146117879)"><svg viewBox="0 0 396 68" data-background-color="#ffffff" preserveAspectRatio="xMidYMid meet" height="343" width="2000" xmlns="http://www.w3.org/2000/svg" xmlns:xlink="http://www.w3.org/1999/xlink"><g id="tight-bounds" transform="matrix(1,0,0,1,0.2400000000000091,-0.16131308788575893)"><svg viewBox="0 0 395.52 68.32262557598214" height="68.32262557598214" width="395.52"><g><svg viewBox="0 0 497.74270731622283 85.98070546405229" height="68.32262557598214" width="395.52"><g><rect width="5.610585203210039" height="62.52576627450979" x="410.20739581992154" y="11.72746959477125" fill="#ffffff" opacity="1" stroke-width="0" stroke="transparent" fill-opacity="1" class="rect-o-0" data-fill-palette-color="primary" rx="1%" id="o-0" data-palette-color="#e6b17e"></rect></g><g transform="matrix(1,0,0,1,0,11.883006326797389)"><svg viewBox="0 0 395.52 62.214692810457514" height="62.214692810457514" width="395.52"><g id="textblocktransform"><svg viewBox="0 0 395.52 62.214692810457514" height="62.214692810457514" width="395.52" id="textblock"><g><svg viewBox="0 0 395.52 62.214692810457514" height="62.214692810457514" width="395.52"><g transform="matrix(1,0,0,1,0,0)"><svg width="395.52" viewBox="2.5999999046325684 -35.5 227.42999267578125 36.099998474121094" height="62.214692810457514" data-palette-color="#e6b17e"><g class="wordmark-text-0" data-fill-palette-color="primary" id="text-0"><path d="M15.25 0.6L15.25 0.6Q12.3 0.6 9.95-0.48 7.6-1.55 5.98-3.75 4.35-5.95 3.48-9.38 2.6-12.8 2.6-17.45L2.6-17.45Q2.6-22.1 3.48-25.53 4.35-28.95 5.98-31.15 7.6-33.35 9.95-34.43 12.3-35.5 15.25-35.5L15.25-35.5Q19.55-35.5 22.15-33.68 24.75-31.85 26.25-28.1L26.25-28.1 23.05-26.15Q22.1-29 20.33-30.48 18.55-31.95 15.25-31.95L15.25-31.95Q11.25-31.95 9.08-29.08 6.9-26.2 6.9-21.35L6.9-21.35 6.9-13.55Q6.9-8.7 9.08-5.83 11.25-2.95 15.25-2.95L15.25-2.95Q18.65-2.95 20.5-4.53 22.35-6.1 23.3-9.1L23.3-9.1 26.5-7.1Q25-3.35 22.28-1.38 19.55 0.6 15.25 0.6ZM44 0.6L44 0.6Q37.65 0.6 34.15-3.75 30.65-8.1 30.65-17.45L30.65-17.45Q30.65-26.8 34.15-31.15 37.65-35.5 44-35.5L44-35.5Q50.35-35.5 53.85-31.15 57.35-26.8 57.35-17.45L57.35-17.45Q57.35-8.1 53.85-3.75 50.35 0.6 44 0.6ZM44-2.95L44-2.95Q48.35-2.95 50.7-5.83 53.05-8.7 53.05-13.55L53.05-13.55 53.05-21.35Q53.05-26.2 50.7-29.08 48.35-31.95 44-31.95L44-31.95Q39.65-31.95 37.3-29.08 34.95-26.2 34.95-21.35L34.95-21.35 34.95-13.55Q34.95-8.7 37.3-5.83 39.65-2.95 44-2.95ZM64.1 0L64.1-34.9 75.05-34.9Q81.1-34.9 84.4-30.73 87.7-26.55 87.7-17.45L87.7-17.45Q87.7-8.35 84.4-4.17 81.1 0 75.05 0L75.05 0 64.1 0ZM68.1-3.5L75.05-3.5Q78.8-3.5 81.1-6.1 83.4-8.7 83.4-13.55L83.4-13.55 83.4-21.35Q83.4-26.2 81.1-28.8 78.8-31.4 75.05-31.4L75.05-31.4 68.1-31.4 68.1-3.5ZM113.74 0L94.44 0 94.44-34.9 113.74-34.9 113.74-31.4 98.44-31.4 98.44-19.4 112.79-19.4 112.79-15.9 98.44-15.9 98.44-3.5 113.74-3.5 113.74 0Z" fill="#ffffff" data-fill-palette-color="primary"></path><path d="M139.59 0.6L139.59 0.6Q136.64 0.6 134.29-0.48 131.94-1.55 130.31-3.75 128.69-5.95 127.81-9.38 126.94-12.8 126.94-17.45L126.94-17.45Q126.94-22.1 127.81-25.53 128.69-28.95 130.31-31.15 131.94-33.35 134.29-34.43 136.64-35.5 139.59-35.5L139.59-35.5Q143.89-35.5 146.49-33.68 149.09-31.85 150.59-28.1L150.59-28.1 147.39-26.15Q146.44-29 144.66-30.48 142.89-31.95 139.59-31.95L139.59-31.95Q135.59-31.95 133.41-29.08 131.24-26.2 131.24-21.35L131.24-21.35 131.24-13.55Q131.24-8.7 133.41-5.83 135.59-2.95 139.59-2.95L139.59-2.95Q142.99-2.95 144.84-4.53 146.69-6.1 147.64-9.1L147.64-9.1 150.84-7.1Q149.34-3.35 146.61-1.38 143.89 0.6 139.59 0.6ZM180.29 0L176.19 0 173.09-10.45 160.54-10.45 157.44 0 153.44 0 164.34-34.9 169.33-34.9 180.29 0ZM172.19-13.75L168.14-27 167.04-31.35 166.54-31.35 165.44-27 161.49-13.75 172.19-13.75ZM189.48 0L185.48 0 185.48-34.9 204.33-34.9 204.33-31.4 189.48-31.4 189.48-19.4 202.98-19.4 202.98-15.9 189.48-15.9 189.48 0ZM230.03 0L210.73 0 210.73-34.9 230.03-34.9 230.03-31.4 214.73-31.4 214.73-19.4 229.08-19.4 229.08-15.9 214.73-15.9 214.73-3.5 230.03-3.5 230.03 0Z" fill="#ffffff" data-fill-palette-color="secondary"></path></g></svg></g></svg></g></svg></g></svg></g><g transform="matrix(1,0,0,1,430.50537684305317,0)"><svg viewBox="0 0 67.23733047316965 85.98070546405229" height="85.98070546405229" width="67.23733047316965"><g><svg xmlns="http://www.w3.org/2000/svg" xmlns:xlink="http://www.w3.org/1999/xlink" version="1.1" x="0" y="0" viewBox="56.976165771484375 3.368000030517578 386.0234069824219 493.63299560546875" enable-background="new 0 0 500 500" xml:space="preserve" height="85.98070546405229" width="67.23733047316965" class="icon-icon-0" data-fill-palette-color="accent" id="icon-0"><path d="M442.11 100.351l-30.745-62.002c-1.441-2.907-4.406-4.746-7.651-4.746h-10.352L380.606 8.09c-1.446-2.894-4.403-4.722-7.638-4.722H127.007c-3.235 0-6.192 1.828-7.639 4.722l-12.757 25.513h-10.35c-3.245 0-6.209 1.839-7.651 4.746l-30.745 62.002c-1.312 2.647-1.164 5.785 0.394 8.296 1.558 2.512 4.302 4.038 7.257 4.038h31.843l8.589 62.344h-7.129c-1.712 0-3.342 0.734-4.477 2.017-1.135 1.281-1.665 2.987-1.458 4.687l26.321 215.218c0.367 2.999 2.914 5.252 5.935 5.252h12.105l12.045 87.423c0.583 4.228 4.194 7.375 8.46 7.375h184.472c4.268 0 7.878-3.147 8.46-7.375l12.045-87.423h12.105c3.021 0 5.568-2.253 5.935-5.252l26.323-215.218c0.207-1.7-0.323-3.406-1.457-4.687-1.137-1.283-2.767-2.017-4.479-2.017h-7.13l8.59-62.344h31.843c2.954 0 5.7-1.526 7.258-4.038C443.274 106.135 443.424 102.998 442.11 100.351zM334.779 479.919H165.196l-10.707-77.717h190.997L334.779 479.919zM376.786 175.028H123.19l-8.589-62.344h270.773L376.786 175.028zM395.204 95.604c-0.013 0-0.021-0.002-0.032-0.002H104.803c-0.01 0-0.021 0.002-0.031 0.002H79.284l22.275-44.921h163.8c4.717 0 8.541-3.824 8.541-8.541s-3.824-8.54-8.541-8.54H125.708l6.577-13.153h235.406l6.576 13.153h-16.671c-4.717 0-8.541 3.824-8.541 8.54s3.824 8.541 8.541 8.541h40.819l22.275 44.921H395.204z" fill="#ffffff" data-fill-palette-color="accent"></path></svg></g></svg></g></svg></g><defs></defs></svg><rect width="395.52" height="68.32262557598214" fill="none" stroke="none" visibility="hidden"></rect></g></svg></g></svg>